<svg width="138" height="120" viewBox="0 0 138 120" fill="none" xmlns="http://www.w3.org/2000/svg">
<path d="M-1.31134e-06 90L69 120L69 60L-1.31134e-06 90Z" fill="#3A2A70"/>
<path d="M138 90L69 120L69 60L138 90Z" fill="#14073F"/>
<path d="M-1.31134e-06 70L69 100L69 40L-1.31134e-06 70Z" fill="#FF8948"/>
<path d="M138 70L69 100L69 40L138 70Z" fill="#FF4C4C"/>
<path d="M-1.31134e-06 50L69 80L69 20L-1.31134e-06 50Z" fill="#FFBC17"/>
<path d="M138 50L69 80L69 20L138 50Z" fill="#FF8948"/>
<path d="M-1.31134e-06 30L69 60L69 7.98611e-07L-1.31134e-06 30Z" fill="#FFDE00"/>
<path d="M138 30L69 60L69 7.98611e-07L138 30Z" fill="#FFBC17"/>
</svg>
