<svg width="282" height="245" viewBox="0 0 282 245" fill="none" xmlns="http://www.w3.org/2000/svg">
<path d="M254.397 122.25C265.539 111.243 271.917 98.4637 271.917 84.8333C271.917 43.504 213.285 10 140.958 10C68.632 10 10 43.504 10 84.8333C10 98.4637 16.3773 111.243 27.5199 122.25C50.1632 99.8823 92.4853 84.8333 140.958 84.8333C189.431 84.8333 231.753 99.8823 254.397 122.25Z" fill="url(#paint0_linear_752_1706)"/>
<path d="M140.958 159.667C213.285 159.667 271.917 126.163 271.917 84.8334V159.667C271.917 200.996 213.285 234.5 140.958 234.5C68.632 234.5 10 200.996 10 159.667V84.8334C10 126.163 68.632 159.667 140.958 159.667Z" fill="url(#paint1_linear_752_1706)"/>
<g filter="url(#filter0_f_752_1706)">
<path d="M254.397 122.25C265.539 111.243 271.917 98.4637 271.917 84.8333C271.917 43.504 213.285 10 140.958 10C68.632 10 10 43.504 10 84.8333C10 98.4637 16.3773 111.243 27.5199 122.25C50.1632 99.8823 92.4853 84.8333 140.958 84.8333C189.431 84.8333 231.753 99.8823 254.397 122.25Z" fill="url(#paint2_linear_752_1706)"/>
<path d="M140.958 159.667C213.285 159.667 271.917 126.163 271.917 84.8334V159.667C271.917 200.996 213.285 234.5 140.958 234.5C68.632 234.5 10 200.996 10 159.667V84.8334C10 126.163 68.632 159.667 140.958 159.667Z" fill="url(#paint3_linear_752_1706)"/>
</g>
<defs>
<filter id="filter0_f_752_1706" x="0" y="0" width="281.917" height="244.5" filterUnits="userSpaceOnUse" color-interpolation-filters="sRGB">
<feFlood flood-opacity="0" result="BackgroundImageFix"/>
<feBlend mode="normal" in="SourceGraphic" in2="BackgroundImageFix" result="shape"/>
<feGaussianBlur stdDeviation="5" result="effect1_foregroundBlur_752_1706"/>
</filter>
<linearGradient id="paint0_linear_752_1706" x1="140.958" y1="10" x2="140.958" y2="112.896" gradientUnits="userSpaceOnUse">
<stop stop-color="#922544"/>
<stop offset="1" stop-color="#340F1A"/>
</linearGradient>
<linearGradient id="paint1_linear_752_1706" x1="140.958" y1="128.486" x2="140.958" y2="234.5" gradientUnits="userSpaceOnUse">
<stop stop-color="#F7487A"/>
<stop offset="1" stop-color="#7A233C"/>
</linearGradient>
<linearGradient id="paint2_linear_752_1706" x1="140.958" y1="10" x2="140.958" y2="112.896" gradientUnits="userSpaceOnUse">
<stop stop-color="#922544"/>
<stop offset="1" stop-color="#340F1A"/>
</linearGradient>
<linearGradient id="paint3_linear_752_1706" x1="140.958" y1="128.486" x2="140.958" y2="234.5" gradientUnits="userSpaceOnUse">
<stop stop-color="#F7487A"/>
<stop offset="1" stop-color="#7A233C"/>
</linearGradient>
</defs>
</svg>
