<svg width="50" height="50" viewBox="0 0 50 50" fill="none" xmlns="http://www.w3.org/2000/svg">
<path d="M11.8146 8.86873L27.9458 25L25 27.9458L17.8208 20.7666C16.8986 22.3303 16.5122 24.1523 16.7203 25.9556C16.9284 27.7589 17.7197 29.445 18.9739 30.7574C20.228 32.0699 21.8765 32.9369 23.6685 33.2266C25.4605 33.5164 27.2982 33.2131 28.902 32.3628C30.5059 31.5125 31.7882 30.1617 32.5541 28.5158C33.3199 26.87 33.5274 25.0191 33.145 23.2445C32.7625 21.4699 31.8111 19.8688 30.4353 18.6845C29.0595 17.5002 27.3346 16.7975 25.5229 16.6833L21.7625 12.9229C24.6046 12.1607 27.6246 12.4257 30.2906 13.6711C32.9567 14.9165 35.0979 17.0626 36.3373 19.7314C37.5767 22.4002 37.8348 25.4208 37.0662 28.2612C36.2976 31.1017 34.5516 33.5799 32.1356 35.2596C29.7195 36.9394 26.7883 37.7129 23.858 37.444C20.9277 37.1752 18.1862 35.8812 16.1162 33.7898C14.0461 31.6985 12.7803 28.9439 12.5414 26.011C12.3025 23.0781 13.106 20.155 14.8104 17.7562L11.8333 14.7791C9.3489 17.982 8.11684 21.9804 8.36775 26.0261C8.61866 30.0717 10.3353 33.8873 13.1964 36.7586C16.0576 39.6299 19.867 41.3601 23.9117 41.6253C27.9565 41.8906 31.9593 40.6727 35.1709 38.1997C38.3825 35.7267 40.5828 32.168 41.3599 28.1898C42.1371 24.2116 41.4378 20.0865 39.393 16.5866C37.3481 13.0867 34.0979 10.452 30.2507 9.17562C26.4035 7.89921 22.223 8.0686 18.4916 9.65207L15.3625 6.52498C18.3369 4.97086 21.644 4.1616 25 4.16665C36.5062 4.16665 45.8333 13.4937 45.8333 25C45.8333 36.5062 36.5062 45.8333 25 45.8333C13.4937 45.8333 4.16664 36.5062 4.16664 25C4.1635 21.912 4.84825 18.862 6.17114 16.0717C7.49404 13.2814 9.42186 10.8209 11.8146 8.86873Z" fill="white"/>
</svg>
