<svg width="50" height="50" viewBox="0 0 50 50" fill="none" xmlns="http://www.w3.org/2000/svg">
<path d="M8.33335 41.6667C7.18752 41.6667 6.20696 41.2591 5.39169 40.4438C4.57502 39.6271 4.16669 38.6459 4.16669 37.5V12.5C4.16669 11.3542 4.57502 10.3737 5.39169 9.55837C6.20696 8.74171 7.18752 8.33337 8.33335 8.33337H41.6667C42.8125 8.33337 43.7938 8.74171 44.6104 9.55837C45.4257 10.3737 45.8334 11.3542 45.8334 12.5V37.5C45.8334 38.6459 45.4257 39.6271 44.6104 40.4438C43.7938 41.2591 42.8125 41.6667 41.6667 41.6667H8.33335ZM41.6667 16.6667L26.0938 26.4063C25.9202 26.5105 25.7375 26.5882 25.5459 26.6396C25.3556 26.6924 25.1736 26.7188 25 26.7188C24.8264 26.7188 24.6445 26.6924 24.4542 26.6396C24.2625 26.5882 24.0799 26.5105 23.9063 26.4063L8.33335 16.6667V37.5H41.6667V16.6667ZM25 22.9167L41.6667 12.5H8.33335L25 22.9167ZM8.33335 16.6667V17.1875V14.1146V14.1667V12.5V14.1667V14.1396V17.1875V16.6667V37.5V16.6667Z" fill="white"/>
</svg>
