<svg width="50" height="50" viewBox="0 0 50 50" fill="none" xmlns="http://www.w3.org/2000/svg">
<path d="M34.0834 29.1666C34.25 27.7916 34.375 26.4166 34.375 25C34.375 23.5833 34.25 22.2083 34.0834 20.8333H41.125C41.4584 22.1666 41.6667 23.5625 41.6667 25C41.6667 26.4375 41.4584 27.8333 41.125 29.1666M30.3959 40.75C31.6459 38.4375 32.6042 35.9375 33.2709 33.3333H39.4167C37.3983 36.8089 34.1961 39.4416 30.3959 40.75ZM29.875 29.1666H20.125C19.9167 27.7916 19.7917 26.4166 19.7917 25C19.7917 23.5833 19.9167 22.1875 20.125 20.8333H29.875C30.0625 22.1875 30.2084 23.5833 30.2084 25C30.2084 26.4166 30.0625 27.7916 29.875 29.1666ZM25 41.5833C23.2709 39.0833 21.875 36.3125 21.0209 33.3333H28.9792C28.125 36.3125 26.7292 39.0833 25 41.5833ZM16.6667 16.6666H10.5834C12.581 13.1817 15.7808 10.5447 19.5834 9.24996C18.3334 11.5625 17.3959 14.0625 16.6667 16.6666ZM10.5834 33.3333H16.6667C17.3959 35.9375 18.3334 38.4375 19.5834 40.75C15.7888 39.4409 12.5935 36.8077 10.5834 33.3333ZM8.87502 29.1666C8.54169 27.8333 8.33335 26.4375 8.33335 25C8.33335 23.5625 8.54169 22.1666 8.87502 20.8333H15.9167C15.75 22.2083 15.625 23.5833 15.625 25C15.625 26.4166 15.75 27.7916 15.9167 29.1666M25 8.39579C26.7292 10.8958 28.125 13.6875 28.9792 16.6666H21.0209C21.875 13.6875 23.2709 10.8958 25 8.39579ZM39.4167 16.6666H33.2709C32.6188 14.0863 31.6533 11.5956 30.3959 9.24996C34.2292 10.5625 37.4167 13.2083 39.4167 16.6666ZM25 4.16663C13.4792 4.16663 4.16669 13.5416 4.16669 25C4.16669 30.5253 6.36162 35.8243 10.2686 39.7314C12.2032 41.6659 14.4998 43.2005 17.0274 44.2475C19.5551 45.2944 22.2641 45.8333 25 45.8333C30.5254 45.8333 35.8244 43.6384 39.7314 39.7314C43.6384 35.8243 45.8334 30.5253 45.8334 25C45.8334 22.2641 45.2945 19.555 44.2475 17.0274C43.2005 14.4998 41.666 12.2031 39.7314 10.2686C37.7969 8.33401 35.5002 6.79944 32.9726 5.75247C30.445 4.7055 27.7359 4.16663 25 4.16663Z" fill="white"/>
</svg>
